<?xml version="1.0" encoding="utf-8"?>
<!-- Generator: Adobe Illustrator 21.1.0, SVG Export Plug-In . SVG Version: 6.00 Build 0)  -->
<svg version="1.1" id="Layer_1" xmlns="http://www.w3.org/2000/svg" xmlns:xlink="http://www.w3.org/1999/xlink" x="0px" y="0px"
	 viewBox="0 0 20.3 20.2" style="enable-background:new 0 0 20.3 20.2;" xml:space="preserve">
<style type="text/css">
	.st0{filter:url(#Adobe_OpacityMaskFilter);}
	.st1{fill:#FFFFFF;}
	.st2{mask:url(#mask-2_6_);fill:#326DE6;}
	.st3{fill:none;}
	.st4{fill:#326DE6;}
	.st5{fill:url(#SVGID_1_);}
	.st6{fill:url(#SVGID_2_);}
	.st7{fill:url(#SVGID_3_);}
	.st8{fill:url(#SVGID_4_);}
</style>
<g>
	<g id="border_2_" transform="translate(0.000000, 2.554588)">
		<g id="Clip-2_2_">
		</g>
		<defs>
			<filter id="Adobe_OpacityMaskFilter" filterUnits="userSpaceOnUse" x="0.8" y="-1.5" width="18.5" height="18">
				<feColorMatrix  type="matrix" values="1 0 0 0 0  0 1 0 0 0  0 0 1 0 0  0 0 0 1 0"/>
			</filter>
		</defs>
		<mask maskUnits="userSpaceOnUse" x="0.8" y="-1.5" width="18.5" height="18" id="mask-2_6_">
			<g class="st0">
				<polygon id="path-1_6_" class="st1" points="19.3,16.5 19.3,-1.5 0.8,-1.5 0.8,16.5 				"/>
			</g>
		</mask>
		<path id="Fill-1_2_" class="st2" d="M10.1-1.5L10.1-1.5c-0.3,0-0.5,0.1-0.7,0.2l-6,2.9C2.8,1.8,2.5,2.2,2.4,2.7L0.9,9.2
			c-0.1,0.5,0,1,0.3,1.5l4.2,5.2c0.3,0.4,0.8,0.6,1.3,0.6h6.7c0.5,0,1-0.2,1.3-0.6l4.2-5.2c0.3-0.4,0.5-0.9,0.3-1.5l-1.5-6.5
			c-0.1-0.5-0.5-0.9-0.9-1.2l-6-2.9C10.6-1.4,10.3-1.5,10.1-1.5 M10.1-0.9c0.2,0,0.3,0,0.5,0.1l6,2.9c0.3,0.2,0.5,0.4,0.6,0.8
			l1.5,6.5c0.1,0.3,0,0.7-0.2,1l-4.2,5.2c-0.2,0.3-0.5,0.4-0.9,0.4H6.7c-0.3,0-0.7-0.2-0.9-0.4l-4.2-5.2c-0.2-0.3-0.3-0.6-0.2-1
			l1.5-6.5C3,2.5,3.2,2.2,3.5,2.1l6-2.9C9.7-0.9,9.9-0.9,10.1-0.9"/>
	</g>
	<g>
		<path class="st3" d="M7.6,10.7c0.1-0.2,0.1-0.4,0-0.5L5.8,8.4l0,0c-0.6,0.9-0.9,2-0.8,3l2.4-0.5C7.5,10.8,7.6,10.8,7.6,10.7z"/>
		<path class="st3" d="M7.8,12.3l-2.5,0.3c0.2,0.5,0.4,1,0.7,1.4c0.2,0.3,0.5,0.6,0.7,0.8l0,0C6.8,15,7,15.1,7.1,15.2l1-2.2
			c0-0.1,0-0.2,0-0.3C8.1,12.5,7.9,12.3,7.8,12.3z"/>
		<path class="st3" d="M8.8,9.1C9,9.2,9.2,9,9.3,8.8l0.2-2.5C8.4,6.3,7.4,6.8,6.6,7.5l2,1.6C8.7,9.1,8.7,9.1,8.8,9.1z"/>
		<polygon class="st3" points="9.2,11.7 9.9,12.1 9.9,12.1 10.6,11.8 10.8,11.1 10.3,10.4 9.6,10.4 9.1,11 		"/>
		<path class="st3" d="M10,13.5c-0.2-0.1-0.4,0-0.5,0.1l-1.3,2.2c0.7,0.3,1.4,0.4,2.1,0.4v0c0.4,0,0.7-0.1,1-0.2l-1.1-2.3
			C10.1,13.6,10.1,13.5,10,13.5z"/>
		<path class="st3" d="M13.1,7.5L13.1,7.5c-0.7-0.6-1.5-1-2.4-1.2l0,2.6c0,0.1,0,0.1,0.1,0.2c0.1,0.2,0.4,0.2,0.6,0.1l2.1-1.3
			C13.3,7.8,13.2,7.7,13.1,7.5z"/>
		<path class="st3" d="M12.2,10.5c0,0-0.1,0.1-0.1,0.2c-0.1,0.2,0.1,0.4,0.2,0.5l2.4,0.8c0.2-1.1,0-2.2-0.6-3.1L12.2,10.5z"/>
		<path class="st3" d="M11.8,12.6c-0.2,0.1-0.3,0.3-0.2,0.5l0.9,2.4c0.5-0.3,0.9-0.6,1.2-1l0,0c0.4-0.4,0.6-0.9,0.8-1.3l-2.5-0.6
			C11.9,12.6,11.8,12.6,11.8,12.6z"/>
		<path class="st4" d="M4.1,12.7c0.2,0.7,0.5,1.4,1,2c0.3,0.4,0.6,0.7,0.9,1c0.2,0.2,0.4,0.4,0.7,0.5l0.9,0.5
			c0.9,0.4,1.8,0.6,2.8,0.5c0.5,0,1-0.1,1.5-0.3l0.9-0.4c0.6-0.3,1.2-0.8,1.7-1.4c0.5-0.6,0.9-1.2,1.1-1.9l0.3-1
			c0.1-0.3,0.1-0.6,0.1-0.9c0-1.2-0.3-2.4-0.9-3.4L15.3,8l0,0c0-0.1,0-0.1,0.1-0.2c0.2-0.2,0.4-0.3,0.7-0.4l0,0c0,0,0.1-0.1,0.1-0.1
			c0.1,0,0.2-0.1,0.3-0.1L16.7,7c0.2-0.2,0.3-0.5,0.1-0.7c-0.1-0.1-0.2-0.2-0.3-0.2c-0.1,0-0.3,0-0.4,0.1L16,6.2
			c-0.1,0.1-0.2,0.1-0.2,0.2c0,0-0.1,0.1-0.1,0.1l0,0C15.4,6.8,15.2,7,15,7.1c-0.1,0.1-0.2,0-0.2,0l0,0l-0.2,0.1
			c-0.2-0.2-0.4-0.4-0.6-0.6c-0.9-0.8-2-1.4-3.2-1.5l0-0.2l0,0c0,0,0,0-0.1-0.1c0,0,0-0.1,0-0.1c0-0.2,0-0.5,0.1-0.8
			c0,0,0-0.1,0-0.2c0-0.1,0-0.2,0.1-0.3c0,0,0-0.1,0-0.1c0,0,0,0,0,0c0-0.1,0-0.3-0.1-0.4c-0.1-0.1-0.2-0.2-0.4-0.2
			c-0.3,0-0.5,0.2-0.5,0.5c0,0,0,0,0,0c0,0,0,0.1,0,0.1c0,0.1,0,0.2,0,0.3c0,0,0,0.1,0,0.2c0,0.3,0.1,0.6,0,0.9
			c0,0.1-0.1,0.2-0.1,0.2l0,0l0,0.2C9.6,5,9.6,5,9.6,5C8.1,5.1,6.8,5.7,5.7,6.7L5.6,6.6c0,0,0,0,0,0c-0.1,0-0.1,0-0.2,0
			C5.1,6.4,4.9,6.2,4.7,5.9l0,0c0,0-0.1-0.1-0.1-0.1C4.5,5.7,4.4,5.6,4.3,5.6c0,0,0,0-0.1-0.1c0,0,0,0,0,0C4,5.3,3.7,5.3,3.5,5.5
			c-0.1,0.2-0.1,0.4,0,0.6c0,0,0,0.1,0.1,0.1c0,0,0,0,0,0c0,0,0,0,0.1,0.1C3.8,6.3,3.9,6.4,4,6.4c0,0,0.1,0,0.1,0.1l0,0
			c0.3,0.2,0.5,0.3,0.7,0.5l0,0c0.1,0.1,0.1,0.2,0.1,0.2c0,0,0,0,0,0L5,7.5c-0.7,1-1.1,2.2-1.1,3.4c0,0.3,0,0.5,0,0.8L4.1,12.7z
			 M10.3,10.4l0.5,0.6l-0.2,0.7l-0.7,0.3l0,0l-0.7-0.4L9.1,11l0.5-0.6L10.3,10.4z M9.5,6.3L9.3,8.8C9.2,9,9,9.2,8.8,9.1
			c-0.1,0-0.2,0-0.2-0.1l-2-1.6C7.4,6.8,8.4,6.3,9.5,6.3z M5,11.4c-0.1-1,0.2-2.1,0.8-3l0,0l1.8,1.8c0.1,0.2,0.1,0.4,0,0.5
			c-0.1,0.1-0.1,0.1-0.2,0.1L5,11.4z M8.1,12.9l-1,2.2C7,15.1,6.8,15,6.7,14.9l0,0C6.4,14.6,6.2,14.3,6,14c-0.3-0.4-0.6-0.9-0.7-1.4
			l2.5-0.3c0.2,0,0.4,0.2,0.4,0.3C8.2,12.8,8.1,12.8,8.1,12.9z M10.3,16.1L10.3,16.1c-0.7,0-1.4-0.1-2.1-0.4l1.3-2.2
			c0.1-0.1,0.3-0.2,0.5-0.1c0.1,0,0.1,0.1,0.2,0.2l1.1,2.3C11,16.1,10.6,16.1,10.3,16.1z M10.8,9.1c0-0.1-0.1-0.1-0.1-0.2l0-2.6
			c0.9,0.2,1.7,0.6,2.4,1.2l0,0c0.1,0.1,0.2,0.2,0.4,0.4l-2.1,1.3C11.2,9.3,10.9,9.3,10.8,9.1z M13.6,14.5L13.6,14.5
			c-0.3,0.4-0.7,0.7-1.2,1l-0.9-2.4c-0.1-0.2,0-0.4,0.2-0.5c0.1,0,0.1,0,0.2,0l2.5,0.6C14.2,13.6,14,14.1,13.6,14.5z M14.7,12
			l-2.4-0.8c-0.2-0.1-0.3-0.3-0.2-0.5c0-0.1,0.1-0.1,0.1-0.2l2-1.6C14.7,9.8,14.9,10.9,14.7,12z"/>
		<g>
			<path class="st1" d="M16.1,11.8C16.1,11.8,16.1,11.8,16.1,11.8c0-0.1,0-0.1,0-0.2c-0.4,0.5-2.5,2.8-5.2,1.2
				c-3.4-2-2.9-3.2-5.3-3.3c-0.6,0-1.3,0.3-1.7,0.7C3.7,12,4.2,13.7,5.4,15c0,0,0,0,0,0c0,0,0,0,0,0c0.1,0.1,0.2,0.2,0.3,0.3
				c0,0,0,0,0,0c0.1,0.1,0.2,0.2,0.3,0.3c0,0,0,0,0,0c0.1,0.1,0.2,0.2,0.4,0.3c0,0,0,0,0,0c0.1,0.1,0.3,0.2,0.4,0.3
				c0.4,0.2,0.7,0.4,1.1,0.5c0.2,0.1,0.4,0.1,0.6,0.2c1.2,0.3,2.4,0.2,3.5-0.1c0.2-0.1,0.4-0.1,0.6-0.2c0.1,0,0.2-0.1,0.3-0.1
				c0.2-0.1,0.3-0.2,0.5-0.3c0.1-0.1,0.2-0.1,0.2-0.2c0.4-0.2,0.7-0.5,1-0.9c0,0,0,0,0,0c0.1-0.1,0.1-0.2,0.2-0.2c0,0,0,0,0,0
				c0.1-0.1,0.1-0.2,0.2-0.2c0,0,0,0,0,0c0.1-0.1,0.1-0.2,0.2-0.3c0,0,0,0,0,0c0,0,0,0,0,0c0.1-0.1,0.1-0.2,0.2-0.3c0,0,0,0,0,0
				c0,0,0,0,0-0.1c0-0.1,0.1-0.1,0.1-0.2c0,0,0,0,0,0c0,0,0,0,0-0.1c0-0.1,0.1-0.1,0.1-0.2c0,0,0,0,0,0c0,0,0,0,0,0c0,0,0,0,0,0
				c0-0.1,0.1-0.1,0.1-0.2c0,0,0,0,0,0c0.1-0.3,0.2-0.6,0.2-0.9c0,0,0,0,0,0c0,0,0,0,0-0.1c0,0,0,0,0-0.1c0,0,0,0,0,0
				C16.1,12,16.1,11.9,16.1,11.8C16.1,11.9,16.1,11.9,16.1,11.8z"/>
			<g>
				
					<linearGradient id="SVGID_1_" gradientUnits="userSpaceOnUse" x1="1.9706" y1="27.38" x2="14.1436" y2="27.38" gradientTransform="matrix(1 2.139764e-03 -2.139764e-03 1 1.9787 -13.7586)">
					<stop  offset="0" style="stop-color:#0369D3"/>
					<stop  offset="0.4752" style="stop-color:#00BAFF"/>
					<stop  offset="1" style="stop-color:#0043B5"/>
				</linearGradient>
				<path class="st5" d="M6.8,16.5c2.9,1.7,6.6,0.9,8.4-2c0.5-0.8,0.8-1.7,0.9-2.6c-0.4,0.5-2.5,2.8-5.2,1.2c-3.3-2-2.9-3.2-5.3-3.3
					c-0.6,0-1.3,0.3-1.7,0.7C3.6,12.9,4.7,15.2,6.8,16.5z"/>
				
					<linearGradient id="SVGID_2_" gradientUnits="userSpaceOnUse" x1="3.0953" y1="28.5064" x2="14.1214" y2="28.5064" gradientTransform="matrix(1 2.139764e-03 -2.139764e-03 1 1.9787 -13.7586)">
					<stop  offset="0" style="stop-color:#0369D3"/>
					<stop  offset="0.4752" style="stop-color:#00BAFF"/>
					<stop  offset="1" style="stop-color:#0043B5"/>
				</linearGradient>
				<path class="st6" d="M15.2,14.5c0.5-0.8,0.8-1.6,0.9-2.4c-0.5,0.9-2,3-5.6,1.8c-1.2-0.4-3.3-2.6-4.8-1.3
					c-0.8,0.7-0.8,1.7-0.3,2.7c0.4,0.4,0.9,0.8,1.4,1.2C9.7,18.2,13.4,17.4,15.2,14.5z"/>
				
					<linearGradient id="SVGID_3_" gradientUnits="userSpaceOnUse" x1="5.2065" y1="28.5949" x2="14.0914" y2="28.5949" gradientTransform="matrix(1 2.139764e-03 -2.139764e-03 1 1.9787 -13.7586)">
					<stop  offset="0" style="stop-color:#0369D3"/>
					<stop  offset="0.4752" style="stop-color:#00BAFF"/>
					<stop  offset="1" style="stop-color:#0043B5"/>
				</linearGradient>
				<path class="st7" d="M15.2,14.5c0.4-0.7,0.7-1.4,0.8-2.1c-0.1,0.2-0.2,0.5-0.5,0.9c-0.6,0.8-2,2.3-5.5,1.7
					c-2.4-0.4-3.2,0.5-2.7,1.8C10,18.1,13.5,17.2,15.2,14.5z"/>
				
					<linearGradient id="SVGID_4_" gradientUnits="userSpaceOnUse" x1="8.3259" y1="28.6148" x2="14.0761" y2="28.6148" gradientTransform="matrix(1 2.139764e-03 -2.139764e-03 1 1.9787 -13.7586)">
					<stop  offset="0" style="stop-color:#0369D3"/>
					<stop  offset="0.4752" style="stop-color:#00BAFF"/>
					<stop  offset="1" style="stop-color:#0043B5"/>
				</linearGradient>
				<path class="st8" d="M15.2,14.5c0.4-0.7,0.7-1.4,0.8-2.1c-0.1,0.2-1.1,2.2-3.1,2.6c-2.5,0.5-2.7,1.1-2.6,1.7
					c0,0.2,0.1,0.5,0.2,0.6C12.4,17.2,14.1,16.2,15.2,14.5z"/>
			</g>
		</g>
	</g>
</g>
</svg>
