<?xml version="1.0" encoding="utf-8"?>
<!-- Generator: Adobe Illustrator 21.1.0, SVG Export Plug-In . SVG Version: 6.00 Build 0)  -->
<svg version="1.1" id="Layer_1" xmlns="http://www.w3.org/2000/svg" xmlns:xlink="http://www.w3.org/1999/xlink" x="0px" y="0px"
	 viewBox="0 0 91 30.4" style="enable-background:new 0 0 91 30.4;" xml:space="preserve">
<style type="text/css">
	.st0{fill:#346DE4;}
	.st1{font-family:'TypoGraphica';}
	.st2{font-size:17.9544px;}
	.st3{filter:url(#Adobe_OpacityMaskFilter);}
	.st4{fill:#FFFFFF;}
	.st5{mask:url(#mask-2_6_);fill:#326DE6;}
	.st6{fill:none;}
	.st7{fill:#326DE6;}
	.st8{fill:url(#SVGID_1_);}
	.st9{fill:url(#SVGID_2_);}
	.st10{fill:url(#SVGID_3_);}
	.st11{fill:url(#SVGID_4_);}
</style>
<text transform="matrix(1 0 0 1 24.4891 18.9345)" class="st0 st1 st2">pharmer</text>
<g>
	<g id="border_2_" transform="translate(0.000000, 2.554588)">
		<g id="Clip-2_2_">
		</g>
		<defs>
			<filter id="Adobe_OpacityMaskFilter" filterUnits="userSpaceOnUse" x="3.5" y="4.2" width="18.5" height="18">
				<feColorMatrix  type="matrix" values="1 0 0 0 0  0 1 0 0 0  0 0 1 0 0  0 0 0 1 0"/>
			</filter>
		</defs>
		<mask maskUnits="userSpaceOnUse" x="3.5" y="4.2" width="18.5" height="18" id="mask-2_6_">
			<g class="st3">
				<polygon id="path-1_6_" class="st4" points="22,22.2 22,4.2 3.5,4.2 3.5,22.2 				"/>
			</g>
		</mask>
		<path id="Fill-1_2_" class="st5" d="M12.8,4.2L12.8,4.2c-0.3,0-0.5,0.1-0.7,0.2L6,7.3C5.5,7.5,5.2,7.9,5,8.4l-1.5,6.5
			c-0.1,0.5,0,1,0.3,1.5l4.2,5.2c0.3,0.4,0.8,0.6,1.3,0.6h6.7c0.5,0,1-0.2,1.3-0.6l4.2-5.2c0.3-0.4,0.5-0.9,0.3-1.5l-1.5-6.5
			c-0.1-0.5-0.5-0.9-0.9-1.2l-6-2.9C13.3,4.3,13,4.2,12.8,4.2 M12.8,4.8c0.2,0,0.3,0,0.5,0.1l6,2.9c0.3,0.2,0.5,0.4,0.6,0.8l1.5,6.5
			c0.1,0.3,0,0.7-0.2,1L17,21.2c-0.2,0.3-0.5,0.4-0.9,0.4H9.4c-0.3,0-0.7-0.2-0.9-0.4L4.3,16c-0.2-0.3-0.3-0.6-0.2-1l1.5-6.5
			c0.1-0.3,0.3-0.6,0.6-0.8l6-2.9C12.4,4.8,12.6,4.8,12.8,4.8"/>
	</g>
	<g>
		<path class="st6" d="M10.3,16.4c0.1-0.2,0.1-0.4,0-0.5l-1.8-1.8l0,0c-0.6,0.9-0.9,2-0.8,3l2.4-0.5C10.2,16.5,10.2,16.5,10.3,16.4z
			"/>
		<path class="st6" d="M10.4,18l-2.5,0.3c0.2,0.5,0.4,1,0.7,1.4c0.2,0.3,0.5,0.6,0.7,0.8l0,0c0.1,0.1,0.2,0.2,0.4,0.3l1-2.2
			c0-0.1,0-0.2,0-0.3C10.8,18.2,10.6,18,10.4,18z"/>
		<path class="st6" d="M11.5,14.8c0.2,0,0.4-0.1,0.4-0.4l0.2-2.5c-1.1,0.1-2.1,0.5-2.9,1.2l2,1.6C11.3,14.8,11.4,14.8,11.5,14.8z"/>
		<polygon class="st6" points="11.9,17.4 12.5,17.8 12.5,17.8 13.2,17.5 13.4,16.7 13,16.1 12.2,16.1 11.7,16.6 		"/>
		<path class="st6" d="M12.7,19.2c-0.2-0.1-0.4,0-0.5,0.1l-1.3,2.2c0.7,0.3,1.4,0.4,2.1,0.4v0c0.4,0,0.7-0.1,1-0.2l-1.1-2.3
			C12.8,19.3,12.7,19.2,12.7,19.2z"/>
		<path class="st6" d="M15.8,13.2L15.8,13.2c-0.7-0.6-1.5-1-2.4-1.2l0,2.6c0,0.1,0,0.1,0.1,0.2c0.1,0.2,0.4,0.2,0.6,0.1l2.1-1.3
			C16,13.4,15.9,13.3,15.8,13.2z"/>
		<path class="st6" d="M14.9,16.2c0,0-0.1,0.1-0.1,0.2c-0.1,0.2,0.1,0.4,0.2,0.5l2.4,0.8c0.2-1.1,0-2.2-0.6-3.1L14.9,16.2z"/>
		<path class="st6" d="M14.4,18.3c-0.2,0.1-0.3,0.3-0.2,0.5l0.9,2.4c0.5-0.3,0.9-0.6,1.2-1l0,0c0.4-0.4,0.6-0.9,0.8-1.3l-2.5-0.6
			C14.5,18.3,14.5,18.3,14.4,18.3z"/>
		<path class="st7" d="M6.8,18.4c0.2,0.7,0.5,1.4,1,2c0.3,0.4,0.6,0.7,0.9,1c0.2,0.2,0.4,0.4,0.7,0.5l0.9,0.5
			c0.9,0.4,1.8,0.6,2.8,0.5c0.5,0,1-0.1,1.5-0.3l0.9-0.4c0.6-0.3,1.2-0.8,1.7-1.4c0.5-0.6,0.9-1.2,1.1-1.9l0.3-1
			c0.1-0.3,0.1-0.6,0.1-0.9c0-1.2-0.3-2.4-0.9-3.4l0.2-0.1l0,0c0-0.1,0-0.1,0.1-0.2c0.2-0.2,0.4-0.3,0.7-0.4l0,0
			c0,0,0.1-0.1,0.1-0.1c0.1,0,0.2-0.1,0.3-0.1l0.1-0.1c0.2-0.2,0.3-0.5,0.1-0.7c-0.1-0.1-0.2-0.2-0.3-0.2c-0.1,0-0.3,0-0.4,0.1
			l-0.1,0.1c-0.1,0.1-0.2,0.1-0.2,0.2c0,0-0.1,0.1-0.1,0.1l0,0c-0.2,0.2-0.4,0.4-0.6,0.5c-0.1,0.1-0.2,0-0.2,0l0,0l-0.2,0.1
			c-0.2-0.2-0.4-0.4-0.6-0.6c-0.9-0.8-2-1.4-3.2-1.5l0-0.2l0,0c0,0,0,0-0.1-0.1c0,0,0-0.1,0-0.1c0-0.2,0-0.5,0.1-0.8
			c0,0,0-0.1,0-0.2c0-0.1,0-0.2,0.1-0.3c0,0,0-0.1,0-0.1c0,0,0,0,0,0c0-0.1,0-0.3-0.1-0.4c-0.1-0.1-0.2-0.2-0.4-0.2
			c-0.3,0-0.5,0.2-0.5,0.5c0,0,0,0,0,0c0,0,0,0.1,0,0.1c0,0.1,0,0.2,0,0.3c0,0,0,0.1,0,0.2c0,0.3,0.1,0.6,0,0.9
			c0,0.1-0.1,0.2-0.1,0.2l0,0l0,0.2c-0.1,0-0.1,0-0.1,0c-1.5,0.1-2.8,0.7-3.8,1.7l-0.2-0.1c0,0,0,0,0,0c-0.1,0-0.1,0-0.2,0
			c-0.2-0.1-0.4-0.4-0.6-0.6l0,0c0,0-0.1-0.1-0.1-0.1c-0.1-0.1-0.1-0.1-0.2-0.2c0,0,0,0-0.1-0.1c0,0,0,0,0,0c-0.2-0.2-0.5-0.2-0.7,0
			c-0.1,0.2-0.1,0.4,0,0.6c0,0,0,0.1,0.1,0.1c0,0,0,0,0,0c0,0,0,0,0.1,0.1c0.1,0.1,0.2,0.1,0.3,0.2c0,0,0.1,0,0.1,0.1l0,0
			c0.3,0.2,0.5,0.3,0.7,0.5l0,0c0.1,0.1,0.1,0.2,0.1,0.2c0,0,0,0,0,0l0.2,0.2c-0.7,1-1.1,2.2-1.1,3.4c0,0.3,0,0.5,0,0.8L6.8,18.4z
			 M13,16.1l0.5,0.6l-0.2,0.7l-0.7,0.3l0,0l-0.7-0.4l-0.1-0.8l0.5-0.6L13,16.1z M12.1,12l-0.2,2.5c0,0.2-0.2,0.4-0.4,0.4
			c-0.1,0-0.2,0-0.2-0.1l-2-1.6C10.1,12.5,11.1,12,12.1,12z M7.7,17.1c-0.1-1,0.2-2.1,0.8-3l0,0l1.8,1.8c0.1,0.2,0.1,0.4,0,0.5
			c-0.1,0.1-0.1,0.1-0.2,0.1L7.7,17.1z M10.8,18.6l-1,2.2c-0.1-0.1-0.2-0.2-0.4-0.3l0,0c-0.3-0.3-0.5-0.5-0.7-0.8
			c-0.3-0.4-0.6-0.9-0.7-1.4l2.5-0.3c0.2,0,0.4,0.2,0.4,0.3C10.8,18.4,10.8,18.5,10.8,18.6z M12.9,21.8L12.9,21.8
			c-0.7,0-1.4-0.1-2.1-0.4l1.3-2.2c0.1-0.1,0.3-0.2,0.5-0.1c0.1,0,0.1,0.1,0.2,0.2l1.1,2.3C13.6,21.7,13.3,21.8,12.9,21.8z
			 M13.5,14.8c0-0.1-0.1-0.1-0.1-0.2l0-2.6c0.9,0.2,1.7,0.6,2.4,1.2l0,0c0.1,0.1,0.2,0.2,0.4,0.4L14,14.9C13.8,15,13.6,15,13.5,14.8
			z M16.3,20.2L16.3,20.2c-0.3,0.4-0.7,0.7-1.2,1l-0.9-2.4c-0.1-0.2,0-0.4,0.2-0.5c0.1,0,0.1,0,0.2,0l2.5,0.6
			C16.9,19.3,16.6,19.8,16.3,20.2z M17.4,17.7L15,16.8c-0.2-0.1-0.3-0.3-0.2-0.5c0-0.1,0.1-0.1,0.1-0.2l2-1.6
			C17.4,15.5,17.6,16.6,17.4,17.7z"/>
		<g>
			<path class="st4" d="M18.8,17.5C18.8,17.5,18.8,17.5,18.8,17.5c0-0.1,0-0.1,0-0.2c-0.4,0.5-2.5,2.8-5.2,1.2
				c-3.4-2-2.9-3.2-5.3-3.3c-0.6,0-1.3,0.3-1.7,0.7c-0.2,1.7,0.3,3.4,1.5,4.7c0,0,0,0,0,0c0,0,0,0,0,0c0.1,0.1,0.2,0.2,0.3,0.3
				c0,0,0,0,0,0c0.1,0.1,0.2,0.2,0.3,0.3c0,0,0,0,0,0c0.1,0.1,0.2,0.2,0.4,0.3c0,0,0,0,0,0c0.1,0.1,0.3,0.2,0.4,0.3
				c0.4,0.2,0.7,0.4,1.1,0.5c0.2,0.1,0.4,0.1,0.6,0.2c1.2,0.3,2.4,0.2,3.5-0.1c0.2-0.1,0.4-0.1,0.6-0.2c0.1,0,0.2-0.1,0.3-0.1
				c0.2-0.1,0.3-0.2,0.5-0.3c0.1-0.1,0.2-0.1,0.2-0.2c0.4-0.2,0.7-0.5,1-0.9c0,0,0,0,0,0c0.1-0.1,0.1-0.2,0.2-0.2c0,0,0,0,0,0
				c0.1-0.1,0.1-0.2,0.2-0.2c0,0,0,0,0,0c0.1-0.1,0.1-0.2,0.2-0.3c0,0,0,0,0,0c0,0,0,0,0,0c0.1-0.1,0.1-0.2,0.2-0.3c0,0,0,0,0,0
				c0,0,0,0,0-0.1c0-0.1,0.1-0.1,0.1-0.2c0,0,0,0,0,0c0,0,0,0,0-0.1c0-0.1,0.1-0.1,0.1-0.2c0,0,0,0,0,0c0,0,0,0,0,0c0,0,0,0,0,0
				c0-0.1,0.1-0.1,0.1-0.2c0,0,0,0,0,0c0.1-0.3,0.2-0.6,0.2-0.9c0,0,0,0,0,0c0,0,0,0,0-0.1c0,0,0,0,0-0.1c0,0,0,0,0,0
				C18.8,17.7,18.8,17.6,18.8,17.5C18.8,17.6,18.8,17.5,18.8,17.5z"/>
			<g>
				
					<linearGradient id="SVGID_1_" gradientUnits="userSpaceOnUse" x1="4.6324" y1="33.0637" x2="16.8055" y2="33.0637" gradientTransform="matrix(1 2.139764e-03 -2.139764e-03 1 1.9908 -13.7643)">
					<stop  offset="0" style="stop-color:#0369D3"/>
					<stop  offset="0.4752" style="stop-color:#00BAFF"/>
					<stop  offset="1" style="stop-color:#0043B5"/>
				</linearGradient>
				<path class="st8" d="M9.5,22.2c2.9,1.7,6.6,0.9,8.4-2c0.5-0.8,0.8-1.7,0.9-2.6c-0.4,0.5-2.5,2.8-5.2,1.2c-3.3-2-2.9-3.2-5.3-3.3
					c-0.6,0-1.3,0.3-1.7,0.7C6.3,18.6,7.3,20.9,9.5,22.2z"/>
				
					<linearGradient id="SVGID_2_" gradientUnits="userSpaceOnUse" x1="5.7571" y1="34.1901" x2="16.7833" y2="34.1901" gradientTransform="matrix(1 2.139764e-03 -2.139764e-03 1 1.9908 -13.7643)">
					<stop  offset="0" style="stop-color:#0369D3"/>
					<stop  offset="0.4752" style="stop-color:#00BAFF"/>
					<stop  offset="1" style="stop-color:#0043B5"/>
				</linearGradient>
				<path class="st9" d="M17.8,20.2c0.5-0.8,0.8-1.6,0.9-2.4c-0.5,0.9-2,3-5.6,1.8C12,19.3,9.8,17,8.3,18.3
					c-0.8,0.7-0.8,1.7-0.3,2.7c0.4,0.4,0.9,0.8,1.4,1.2C12.3,23.9,16.1,23,17.8,20.2z"/>
				
					<linearGradient id="SVGID_3_" gradientUnits="userSpaceOnUse" x1="7.8683" y1="34.2786" x2="16.7532" y2="34.2786" gradientTransform="matrix(1 2.139764e-03 -2.139764e-03 1 1.9908 -13.7643)">
					<stop  offset="0" style="stop-color:#0369D3"/>
					<stop  offset="0.4752" style="stop-color:#00BAFF"/>
					<stop  offset="1" style="stop-color:#0043B5"/>
				</linearGradient>
				<path class="st10" d="M17.9,20.2c0.4-0.7,0.7-1.4,0.8-2.1c-0.1,0.2-0.2,0.5-0.5,0.9c-0.6,0.8-2,2.3-5.5,1.7
					c-2.4-0.4-3.2,0.5-2.7,1.8C12.7,23.8,16.2,22.9,17.9,20.2z"/>
				
					<linearGradient id="SVGID_4_" gradientUnits="userSpaceOnUse" x1="10.9877" y1="34.2985" x2="16.738" y2="34.2985" gradientTransform="matrix(1 2.139764e-03 -2.139764e-03 1 1.9908 -13.7643)">
					<stop  offset="0" style="stop-color:#0369D3"/>
					<stop  offset="0.4752" style="stop-color:#00BAFF"/>
					<stop  offset="1" style="stop-color:#0043B5"/>
				</linearGradient>
				<path class="st11" d="M17.9,20.2c0.4-0.7,0.7-1.4,0.8-2.1c-0.1,0.2-1.1,2.2-3.1,2.6c-2.5,0.5-2.7,1.1-2.6,1.7
					c0,0.2,0.1,0.5,0.2,0.6C15,22.9,16.8,21.9,17.9,20.2z"/>
			</g>
		</g>
	</g>
</g>
</svg>
