<?xml version="1.0" encoding="utf-8"?>
<!-- Generator: Adobe Illustrator 21.1.0, SVG Export Plug-In . SVG Version: 6.00 Build 0)  -->
<svg version="1.1" id="Layer_1" xmlns="http://www.w3.org/2000/svg" xmlns:xlink="http://www.w3.org/1999/xlink" x="0px" y="0px"
	 viewBox="0 0 69 18.4" style="enable-background:new 0 0 69 18.4;" xml:space="preserve">
<style type="text/css">
	.st0{fill:#346DE4;}
</style>
<g>
	<path class="st0" d="M2.5,9.1c0-0.9,0.2-1.7,0.7-2.4C3.6,6,4.3,5.4,5.1,5c0.8-0.4,1.6-0.6,2.5-0.6c0.7,0,1.3,0.1,1.9,0.4
		c0.6,0.2,1.2,0.6,1.7,1c0.5,0.5,0.9,1,1.1,1.5s0.4,1.2,0.4,1.9c0,0.7-0.1,1.3-0.4,1.9c-0.3,0.6-0.6,1.1-1.1,1.5
		c-0.5,0.4-1,0.8-1.7,1C8.9,13.9,8.3,14,7.6,14c-0.7,0-1.3-0.1-1.9-0.3l-0.2-0.1l-0.2-0.1v3.7l-2.8,0V9.1z M5.2,9.2
		c0,0.4,0.1,0.8,0.3,1.1c0.2,0.3,0.5,0.6,0.9,0.8c0.4,0.2,0.7,0.3,1.1,0.3c0.4,0,0.8-0.1,1.2-0.3c0.4-0.2,0.7-0.5,0.9-0.8
		C9.8,10,9.9,9.6,9.9,9.2c0-0.6-0.2-1.2-0.7-1.6c-0.5-0.5-1-0.7-1.6-0.7C7,6.9,6.4,7.1,5.9,7.6C5.5,8,5.2,8.6,5.2,9.2z"/>
	<path class="st0" d="M16,1.3v4c0.3-0.3,0.6-0.5,1-0.6c0.4-0.2,0.8-0.2,1.2-0.2c2.2,0,3.4,1.3,3.4,4v5.4l-2.8,0V8.5
		c0-0.5-0.1-0.9-0.4-1.2c-0.2-0.3-0.6-0.4-1-0.4c-0.4,0-0.8,0.1-1,0.4C16.1,7.6,16,8,16,8.5v5.2l-2.8,0V1.3L16,1.3z"/>
	<path class="st0" d="M29.5,13.5c-0.2,0.1-0.3,0.1-0.4,0.2c-0.6,0.2-1.3,0.4-1.9,0.4c-0.9,0-1.7-0.2-2.5-0.6c-0.8-0.4-1.4-1-1.9-1.7
		c-0.5-0.7-0.7-1.6-0.7-2.5c0-0.7,0.1-1.3,0.4-1.9c0.3-0.6,0.7-1.1,1.1-1.5c0.5-0.4,1-0.8,1.6-1c0.6-0.2,1.3-0.4,1.9-0.4
		c0.7,0,1.3,0.1,1.9,0.4c0.6,0.2,1.2,0.6,1.6,1c0.5,0.4,0.9,1,1.1,1.5c0.3,0.6,0.4,1.2,0.4,1.9l0,4.6l-2.8,0V13.5z M25.1,8.1
		c-0.2,0.3-0.3,0.7-0.3,1.1c0,0.6,0.2,1.2,0.7,1.6c0.5,0.4,1,0.7,1.6,0.7c0.6,0,1.2-0.2,1.6-0.7c0.5-0.4,0.7-1,0.7-1.6
		c0-0.4-0.1-0.8-0.3-1.1c-0.2-0.3-0.5-0.6-0.9-0.8C28,7,27.6,6.9,27.2,6.9c-0.4,0-0.8,0.1-1.1,0.3C25.6,7.4,25.4,7.7,25.1,8.1z"/>
	<path class="st0" d="M37.3,7.1C37.2,7,37,6.9,36.8,6.9h-0.2c-0.7,0-1.1,0.5-1.1,1.5v5.3h-2.8V8.4c0-2.6,1.3-3.9,3.9-4h0.2
		c0.2,0,0.4,0,0.6,0.1V7.1z"/>
	<path class="st0" d="M45.7,8.2v5.5h-2.8V8.2c0-0.8-0.4-1.2-1.1-1.3h-0.2c-0.7,0-1.1,0.5-1.1,1.5v5.3h-2.8V8.4c0-2.5,1.3-3.9,3.9-4
		h0.2c1,0.1,1.9,0.3,2.5,0.7c0.6-0.4,1.4-0.7,2.5-0.7h0.2c2.6,0.1,3.9,1.5,3.9,4v5.3H48V8.4c0-1-0.4-1.5-1.1-1.5h-0.2
		C46.1,7,45.8,7.4,45.7,8.2z"/>
	<path class="st0" d="M60.7,7.3c0.3,0.6,0.4,1.2,0.4,1.9v0.1c0,0,0,0.1,0,0.1l0,0.1H60v0h-6c0.1,0.5,0.3,0.9,0.6,1.3
		c0.5,0.4,1,0.7,1.6,0.7c0.6,0,1.1-0.2,1.6-0.7l0,0l0,0l0,0l0,0l1.5,2.2c-0.4,0.4-0.9,0.6-1.3,0.8c-0.6,0.2-1.2,0.4-1.9,0.4
		c-0.9,0-1.7-0.2-2.4-0.6c-0.8-0.4-1.4-1-1.8-1.7c-0.5-0.7-0.7-1.6-0.7-2.5c0-0.7,0.1-1.3,0.4-1.9c0.3-0.6,0.6-1.1,1.1-1.5
		c0.5-0.4,1-0.8,1.6-1c0.6-0.2,1.2-0.4,1.9-0.4s1.3,0.1,1.9,0.4c0.6,0.2,1.1,0.6,1.6,1C60.1,6.2,60.5,6.7,60.7,7.3z M56.2,6.9
		c-0.4,0-0.8,0.1-1.1,0.3c-0.2,0.1-0.4,0.3-0.6,0.5h3.4c-0.2-0.2-0.4-0.4-0.6-0.5C57,7,56.6,6.9,56.2,6.9z"/>
	<path class="st0" d="M66.2,7.1C66,7,65.8,6.9,65.6,6.9h-0.2c-0.7,0-1.1,0.5-1.1,1.5v5.3h-2.8V8.4c0-2.6,1.3-3.9,3.9-4h0.2
		c0.2,0,0.4,0,0.6,0.1V7.1z"/>
</g>
</svg>
